<svg id="briefcase" xmlns="http://www.w3.org/2000/svg">
  <path id="Path_2" data-name="Path 2" d="M19.232,4.049H18.119A5.07,5.07,0,0,0,13.159,0H11.134a5.07,5.07,0,0,0-4.96,4.049H5.061A5.067,5.067,0,0,0,0,9.11v3.037H24.293V9.11a5.067,5.067,0,0,0-5.061-5.061Zm-10.948,0a3.037,3.037,0,0,1,2.85-2.024h2.024a3.037,3.037,0,0,1,2.85,2.024Z" fill="#fff"/>
  <path id="Path_3" data-name="Path 3" d="M13.159,15.012a1.012,1.012,0,1,1-2.024,0V14H0v5.061a5.067,5.067,0,0,0,5.061,5.061H19.232a5.067,5.067,0,0,0,5.061-5.061V14H13.159Z" transform="translate(0 0.171)" fill="#fff"/>
</svg>
