<svg xmlns="http://www.w3.org/2000/svg">
  <path id="box-open" d="M2.626,2.625,10.5,0l7.875,2.625L10.508,5.251,2.626,2.615Zm-.875,1.75L.264,6.854a1.773,1.773,0,0,0,.96,2.594l4.446,1.482a1.751,1.751,0,0,0,2.054-.759L9.626,7ZM11.376,7l1.9,3.171a1.748,1.748,0,0,0,2.054.759L19.81,9.437a1.746,1.746,0,0,0,.945-2.555l-1.5-2.508ZM9.223,11.072a3.479,3.479,0,0,1-2.988,1.7,3.519,3.519,0,0,1-1.12-.183L1.751,11.47v6.905L9.626,21V10.4l-.4.67Zm6.663,1.519a3.519,3.519,0,0,1-1.12.183,3.477,3.477,0,0,1-2.988-1.7l-.4-.67V21l7.875-2.625V11.47l-3.364,1.122Z" transform="translate(-0.01)" fill="#d9d6ff"/>
</svg>
