<svg xmlns="http://www.w3.org/2000/svg">
  <g id="credit-card_3_" data-name="credit-card (3)" transform="translate(0 -3)">
    <path id="Path_1518" data-name="Path 1518" d="M18.312,3H4.819C2.159,3,0,5.613,0,8.833H23.131C23.128,5.613,20.972,3,18.312,3Z" fill="#d9d6ff"/>
    <path id="Path_1519" data-name="Path 1519" d="M0,17c0,3.22,2.159,5.829,4.819,5.833H18.312c2.66,0,4.816-2.613,4.819-5.833V10H0Zm6.747-.583A1.62,1.62,0,0,1,5.3,18.167a1.62,1.62,0,0,1-1.446-1.75A1.62,1.62,0,0,1,5.3,14.667a1.62,1.62,0,0,1,1.446,1.75" transform="translate(0 1.167)" fill="#d9d6ff"/>
  </g>
</svg>
