<svg id="print" xmlns="http://www.w3.org/2000/svg">
  <path id="Path_9" data-name="Path 9" d="M19.319,4.091A4.091,4.091,0,0,0,15.228,0H9.091A4.091,4.091,0,0,0,5,4.091V5.114H19.319Z" transform="translate(0.114)" fill="#fff"/>
  <rect id="Rectangle_28" data-name="Rectangle 28" width="14" height="9" rx="3" transform="translate(5.105 15.293)" fill="#fff"/>
  <path id="Path_10" data-name="Path 10" d="M19.433,7H5.114A5.12,5.12,0,0,0,0,12.114v4.091a5.114,5.114,0,0,0,3.068,4.68V18.251a5.12,5.12,0,0,1,5.114-5.114h8.182a5.12,5.12,0,0,1,5.114,5.114v2.635a5.114,5.114,0,0,0,3.068-4.68V12.114A5.12,5.12,0,0,0,19.433,7ZM18.41,11.091H16.365a1.023,1.023,0,1,1,0-2.046H18.41a1.023,1.023,0,1,1,0,2.046Z" transform="translate(0 0.159)" fill="#fff"/>
</svg>
