<svg xmlns="http://www.w3.org/2000/svg">
  <path id="document_3_" data-name="document (3)" d="M12.5,6.125V.4a6.1,6.1,0,0,1,2.157,1.391l3.048,3.05A6.085,6.085,0,0,1,19.1,7H13.375a.875.875,0,0,1-.875-.875Zm7,3.049v7.451A4.38,4.38,0,0,1,15.125,21H6.375A4.38,4.38,0,0,1,2,16.625V4.375A4.38,4.38,0,0,1,6.375,0h3.951c.143,0,.284.011.424.021v6.1A2.625,2.625,0,0,0,13.375,8.75h6.1c.01.141.021.282.021.424Zm-7,7.451a.875.875,0,0,0-.875-.875H7.25a.875.875,0,0,0,0,1.75h4.375A.875.875,0,0,0,12.5,16.625Zm2.625-3.5a.875.875,0,0,0-.875-.875h-7a.875.875,0,0,0,0,1.75h7A.875.875,0,0,0,15.125,13.125Z" transform="translate(-2)" fill="#d9d6ff"/>
</svg>
