<svg xmlns="http://www.w3.org/2000/svg">
  <g id="Group_1882" data-name="Group 1882" transform="translate(0 24.293) rotate(-90)">
    <path id="Path_4" data-name="Path 4" d="M9.363,0H1.771A1.773,1.773,0,0,0,0,1.771V6.326A1.773,1.773,0,0,0,1.771,8.1H9.363a1.773,1.773,0,0,0,1.772-1.772V1.771A1.773,1.773,0,0,0,9.363,0Zm0,0" fill="#fff"/>
    <path id="Path_5" data-name="Path 5" d="M9.363,213.332H1.771A1.773,1.773,0,0,0,0,215.1v10.628A1.773,1.773,0,0,0,1.771,227.5H9.363a1.773,1.773,0,0,0,1.772-1.771V215.1A1.773,1.773,0,0,0,9.363,213.332Zm0,0" transform="translate(0 -203.21)" fill="#fff"/>
    <path id="Path_6" data-name="Path 6" d="M286.7,341.332H279.1a1.773,1.773,0,0,0-1.772,1.772v4.555a1.773,1.773,0,0,0,1.772,1.771H286.7a1.773,1.773,0,0,0,1.771-1.771V343.1A1.773,1.773,0,0,0,286.7,341.332Zm0,0" transform="translate(-264.173 -325.137)" fill="#fff"/>
    <path id="Path_7" data-name="Path 7" d="M286.7,0H279.1a1.773,1.773,0,0,0-1.772,1.771V12.4a1.773,1.773,0,0,0,1.772,1.772H286.7a1.773,1.773,0,0,0,1.771-1.772V1.771A1.773,1.773,0,0,0,286.7,0Zm0,0" transform="translate(-264.173)" fill="#fff"/>
  </g>
</svg>
