<svg xmlns="http://www.w3.org/2000/svg">
  <path id="truck-side" d="M8.591,17.227h10.5a3.818,3.818,0,0,0,3.818-3.818V5.773A4.773,4.773,0,0,0,18.136,1H13.364A4.773,4.773,0,0,0,8.591,5.773ZM0,10.545V9.591A4.773,4.773,0,0,1,4.773,4.818H6.682v5.727Zm6.682,1.909v4.773H3.818A3.818,3.818,0,0,1,0,13.409v-.955Zm12.354,6.682a2.314,2.314,0,0,1,.055.477,2.386,2.386,0,0,1-4.773,0,2.314,2.314,0,0,1,.055-.477Zm-10.5,0a2.314,2.314,0,0,1,.055.477,2.386,2.386,0,0,1-4.773,0,2.314,2.314,0,0,1,.055-.477Z" transform="translate(0 -1)" fill="#d9d6ff"/>
</svg>
