<svg xmlns="http://www.w3.org/2000/svg" viewBox="0 0 19.985 20">
  <path id="file-export_1_" data-name="file-export (1)" d="M4.435,17.417a.824.824,0,0,1,1.175.075,2.493,2.493,0,0,0,1.875.85h8.333a2.507,2.507,0,0,0,2.5-2.5V4.167a2.507,2.507,0,0,0-2.5-2.5H12.06a3.346,3.346,0,0,0-.408.017v4.15a2.507,2.507,0,0,1-2.5,2.5H4.31a.821.821,0,0,1-.658-.325.851.851,0,0,1-.15-.717A5.814,5.814,0,0,1,5.027,4.608l2.9-2.9A5.8,5.8,0,0,1,12.052,0h3.767a4.168,4.168,0,0,1,4.167,4.167V15.833A4.168,4.168,0,0,1,15.819,20H7.485A4.191,4.191,0,0,1,4.36,18.592.824.824,0,0,1,4.435,17.417Zm5.55-15.2a4.235,4.235,0,0,0-.875.675l-2.9,2.9a4.263,4.263,0,0,0-.667.875H9.16a.836.836,0,0,0,.833-.833V2.217ZM.71,15.075l1.342,1.342a.818.818,0,0,0,.592.242.854.854,0,0,0,.592-.242.83.83,0,0,0,0-1.175L2.16,14.167H8.327a.833.833,0,1,0,0-1.667H2.16l1.075-1.075A.831.831,0,0,0,2.06,10.25L.719,11.592a2.48,2.48,0,0,0,0,3.492Z" fill="#574dff"/>
</svg>
