<svg xmlns="http://www.w3.org/2000/svg" viewBox="0 0 20 24">
  <path id="document_2_" data-name="document (2)" d="M14,7V.46a6.977,6.977,0,0,1,2.465,1.59l3.484,3.486A6.954,6.954,0,0,1,21.54,8H15a1,1,0,0,1-1-1Zm8,3.485V19a5.006,5.006,0,0,1-5,5H7a5.006,5.006,0,0,1-5-5V5A5.006,5.006,0,0,1,7,0h4.515c.163,0,.324.013.485.024V7a3,3,0,0,0,3,3h6.976c.011.161.024.322.024.485ZM14,19a1,1,0,0,0-1-1H8a1,1,0,0,0,0,2h5A1,1,0,0,0,14,19Zm3-4a1,1,0,0,0-1-1H8a1,1,0,0,0,0,2h8A1,1,0,0,0,17,15Z" transform="translate(-2)" fill="#b8b3fd"/>
</svg>
