<svg xmlns="http://www.w3.org/2000/svg" viewBox="0 0 20.942 19.852">
  <g id="settings-sliders" transform="translate(0 -13.326)">
    <path id="Path_14" data-name="Path 14" d="M9.337,15.072a3.038,3.038,0,0,0-5.5,0H1.309A1.309,1.309,0,0,0,0,16.381H0a1.309,1.309,0,0,0,1.309,1.309H3.835a3.038,3.038,0,0,0,5.5,0h10.3a1.309,1.309,0,0,0,1.309-1.309h0a1.309,1.309,0,0,0-1.309-1.309Z" fill="#574dff"/>
    <path id="Path_15" data-name="Path 15" d="M14.359,181.333a3.047,3.047,0,0,0-2.75,1.745H1.309A1.309,1.309,0,0,0,0,184.387H0A1.309,1.309,0,0,0,1.309,185.7h10.3a3.038,3.038,0,0,0,5.5,0h2.531a1.309,1.309,0,0,0,1.309-1.309h0a1.309,1.309,0,0,0-1.309-1.309H17.107A3.047,3.047,0,0,0,14.359,181.333Z" transform="translate(0 -161.135)" fill="#574dff"/>
    <path id="Path_16" data-name="Path 16" d="M6.584,349.333a3.047,3.047,0,0,0-2.749,1.745H1.309A1.309,1.309,0,0,0,0,352.387H0A1.309,1.309,0,0,0,1.309,353.7H3.835a3.038,3.038,0,0,0,5.5,0h10.3a1.309,1.309,0,0,0,1.309-1.309h0a1.309,1.309,0,0,0-1.309-1.309H9.337A3.047,3.047,0,0,0,6.584,349.333Z" transform="translate(0 -322.263)" fill="#574dff"/>
  </g>
</svg>
