<svg xmlns="http://www.w3.org/2000/svg" viewBox="0 0 29.998 23.951">
  <g id="Group_4" data-name="Group 4" transform="translate(-547 -182.049)">
    <path id="expense" d="M23.338,12.345,12.664,24H3a3,3,0,0,1-3-3V14a3,3,0,0,1,3-3H7c-1.654-1-1.094,0,2,0h2.787a2.213,2.213,0,0,1,.313,4.4l-4.241.606.283,1.979,4.241-.606A4.233,4.233,0,0,0,16,13.213a4.057,4.057,0,0,0-.065-.638l3.541-3.737a2.608,2.608,0,0,1,3.672-.157,2.616,2.616,0,0,1,.189,3.665Zm-6.858-5.8L17.894,7.96l2.49-2.49a2.1,2.1,0,0,0,0-2.973L17.936.049,16.522,1.463,18.058,3H14V5h4.026L16.479,6.546Z" transform="translate(553.002 182)" fill="#b8b3fd"/>
    <text id="_" data-name="₪" transform="translate(547 183)" fill="#b8b3fd" font-size="10" font-family="SegoeUIBlack, Segoe UI"><tspan x="-2.634" y="11">₪</tspan></text>
  </g>
</svg>
