<svg xmlns="http://www.w3.org/2000/svg" viewBox="0 0 20 20">
  <path id="Path_9" data-name="Path 9" d="M16.667,3.333A3.333,3.333,0,0,0,13.333,0h-5A3.333,3.333,0,0,0,5,3.333v.833H16.667Z" transform="translate(-0.833)" fill="#5a5780"/>
  <rect id="Rectangle_28" data-name="Rectangle 28" width="11.656" height="7.621" rx="3" transform="translate(4.035 12.379)" fill="#5a5780"/>
  <path id="Path_10" data-name="Path 10" d="M15.833,7H4.167A4.172,4.172,0,0,0,0,11.167V14.5a4.167,4.167,0,0,0,2.5,3.813V16.167A4.172,4.172,0,0,1,6.667,12h6.667A4.172,4.172,0,0,1,17.5,16.167v2.147A4.167,4.167,0,0,0,20,14.5V11.167A4.172,4.172,0,0,0,15.833,7ZM15,10.333H13.333a.833.833,0,0,1,0-1.667H15a.833.833,0,1,1,0,1.667Z" transform="translate(0 -1.167)" fill="#5a5780"/>
</svg>
