<svg xmlns="http://www.w3.org/2000/svg">
  <g id="settings_1_" data-name="settings (1)" transform="translate(-25.66)">
    <path id="Path_1520" data-name="Path 1520" d="M26.014,15.75a2.625,2.625,0,0,0,3.585.964h0l.389-.225a7.855,7.855,0,0,0,2.492,1.438v.449a2.625,2.625,0,1,0,5.25,0v-.449a7.854,7.854,0,0,0,2.492-1.44l.391.226a2.626,2.626,0,0,0,2.625-4.55h0l-.388-.224a7.963,7.963,0,0,0,0-2.879l.388-.224a2.626,2.626,0,0,0-2.625-4.55l-.389.225a7.855,7.855,0,0,0-2.494-1.436V2.625a2.625,2.625,0,1,0-5.25,0v.449a7.854,7.854,0,0,0-2.492,1.44L29.6,4.288a2.626,2.626,0,1,0-2.625,4.55h0l.389.224a7.963,7.963,0,0,0,0,2.879l-.389.224A2.63,2.63,0,0,0,26.014,15.75ZM35.108,7a3.5,3.5,0,1,1-3.5,3.5A3.5,3.5,0,0,1,35.108,7Z" transform="translate(0)" fill="#d9d6ff"/>
  </g>
</svg>
