<svg xmlns="http://www.w3.org/2000/svg" viewBox="0 0 21.858 24.293">
  <g id="settings" transform="translate(-25.66)">
    <path id="Path_8" data-name="Path 8" d="M26.07,18.22a3.037,3.037,0,0,0,4.147,1.115l0,0,.45-.26a9.087,9.087,0,0,0,2.883,1.664v.519a3.037,3.037,0,1,0,6.073,0v-.519a9.086,9.086,0,0,0,2.883-1.666l.452.261A3.038,3.038,0,1,0,46,14.069h0l-.449-.259a9.212,9.212,0,0,0,0-3.33L46,10.22a3.038,3.038,0,0,0-3.037-5.264l-.45.26a9.087,9.087,0,0,0-2.885-1.661V3.037a3.037,3.037,0,1,0-6.073,0v.519A9.086,9.086,0,0,0,30.67,5.222l-.452-.262a3.038,3.038,0,1,0-3.037,5.264h0l.449.259a9.212,9.212,0,0,0,0,3.33l-.449.259A3.043,3.043,0,0,0,26.07,18.22ZM36.59,8.1a4.049,4.049,0,1,1-4.049,4.049A4.049,4.049,0,0,1,36.59,8.1Z" transform="translate(0)" fill="#fff"/>
  </g>
</svg>
